<svg xmlns="http://www.w3.org/2000/svg" xmlns:xlink="http://www.w3.org/1999/xlink" width="126" height="65" viewBox="0 0 126 65">
    <defs>
        <path id="a" d="M.735.212h29.604V38.86H.735z"/>
    </defs>
    <g fill="none" fill-rule="evenodd">
        <path fill="#FEFEFE" d="M33.451 19.42c0-.496-.303-.884-.91-1.163-.608-.28-1.367-.488-2.279-.628-.91-.14-1.905-.21-2.982-.21a99.31 99.31 0 0 0-3.075.047c-.941 1.458-2.02 3.334-3.234 5.63a114.607 114.607 0 0 0-3.598 7.49 26.315 26.315 0 0 0 6.194-1.838c1.944-.852 3.652-1.814 5.125-2.885 1.472-1.069 2.634-2.17 3.484-3.302.85-1.133 1.275-2.18 1.275-3.141M18.056 36.96a28.43 28.43 0 0 0 2.642 3.488 19.545 19.545 0 0 0 3.598 3.187c1.366.946 2.907 1.721 4.623 2.326 1.716.605 3.636.907 5.762.907-.182.961-.585 1.868-1.207 2.722a5.937 5.937 0 0 1-2.368 1.931c-.957.433-2.066.573-3.326.418-1.26-.155-2.596-.752-4.007-1.79-1.413-1.04-2.893-2.606-4.442-4.7-1.548-2.093-3.096-4.862-4.646-8.304a63.662 63.662 0 0 0-1.457 4.234 48.732 48.732 0 0 0-1.047 4 31.147 31.147 0 0 0-.57 3.583c-.106 1.116-.099 2.108.024 2.977-.578 0-1.201-.086-1.869-.256a5.459 5.459 0 0 1-1.867-.884c-.577-.418-1.055-.977-1.435-1.675-.38-.697-.569-1.558-.569-2.582 0-1.396.311-3.07.934-5.024.621-1.953 1.419-4.032 2.391-6.233a6.306 6.306 0 0 1-2.005-2.257c-.486-.914-.727-1.992-.727-3.233a21.73 21.73 0 0 0 4.964 1.024 44.707 44.707 0 0 1 2.232-3.862c.82-1.272 1.64-2.496 2.46-3.675a63.016 63.016 0 0 1 2.413-3.257c.79-.992 1.487-1.86 2.096-2.606-1.701.094-3.538.39-5.512.885a27.778 27.778 0 0 0-5.693 2.116 21.575 21.575 0 0 0-4.897 3.35C3.11 25.088 2.1 26.6 1.522 28.306.338 26.26-.156 24.461.042 22.91a6.913 6.913 0 0 1 1.936-4.025c1.093-1.131 2.52-2.077 4.281-2.838a32.719 32.719 0 0 1 5.535-1.814 44.661 44.661 0 0 1 5.692-.954c1.868-.185 3.47-.279 4.806-.279a40.8 40.8 0 0 1 4.897.28c1.533.186 2.876.534 4.03 1.046 1.154.512 2.074 1.226 2.756 2.14.684.916 1.025 2.117 1.025 3.605a13.4 13.4 0 0 1-1.526 6.28 18.617 18.617 0 0 1-3.962 5.165 21.603 21.603 0 0 1-5.466 3.652c-2.02.946-4.015 1.543-5.99 1.792"/>
        <path fill="#FEFEFE" d="M50.506 36.376l-1.699 1.7a48.974 48.974 0 0 1-1.53 1.474c-.462.423-.853.77-1.17 1.042-.32.272-.526.408-.623.408-.446 0-.876-.083-1.29-.25a5.26 5.26 0 0 1-1.149-.634 3.326 3.326 0 0 1-.836-.862c-.208-.317-.31-.626-.31-.929 0-.453.135-.93.406-1.428.27-.498.556-.959.86-1.383.303-.422.566-.777.79-1.065.222-.287.287-.43.191-.43-.096 0-.43.242-1.004.725a75.959 75.959 0 0 0-2.034 1.79 108.9 108.9 0 0 0-2.414 2.267c-.829.801-1.546 1.534-2.151 2.199-.224 0-.592-.03-1.1-.091a5.286 5.286 0 0 1-1.53-.43 4.108 4.108 0 0 1-1.34-.953c-.382-.408-.573-.974-.573-1.7 0-.634.144-1.42.43-2.357.287-.937.693-1.911 1.22-2.924a27.47 27.47 0 0 1 1.865-3.06 16.39 16.39 0 0 1 2.39-2.742c.876-.8 1.8-1.458 2.774-1.972.972-.514 1.968-.771 2.989-.771.318 0 .724.068 1.219.204.493.137.972.348 1.434.635.462.287.861.642 1.196 1.065.335.424.502.907.502 1.45 0 .485-.04.9-.12 1.247-.08.348-.151.642-.215.884-.128.303-.24.56-.335.771l-1.243-.544c.159-.514.223-.982.192-1.405a2.024 2.024 0 0 0-.36-.952c-.207-.302-.58-.454-1.123-.454-.669 0-1.347.272-2.032.816-.686.545-1.348 1.232-1.985 2.062a23.412 23.412 0 0 0-1.768 2.676c-.544.951-.99 1.843-1.34 2.674-.35.831-.582 1.519-.694 2.063-.111.544-.056.816.169.816.35-.423.924-1.012 1.721-1.768a60.082 60.082 0 0 1 2.534-2.267 31.04 31.04 0 0 1 2.535-1.95c.796-.543 1.386-.815 1.769-.815.35 0 .684.076 1.004.227.319.151.606.333.86.544.255.211.455.453.598.725.144.272.216.514.216.725 0 .272-.16.658-.479 1.156a32.65 32.65 0 0 1-1.052 1.542 89.7 89.7 0 0 0-1.028 1.45c-.303.439-.422.718-.359.839l6.838-6.664H55a560.09 560.09 0 0 1-4.494 4.624"/>
        <path fill="#FEFEFE" d="M73 32.799c-.063 0-.093.03-.093.09l-2.985 3.01c-.093.093-.31.305-.652.638-.342.336-.785.73-1.33 1.187-.543.456-1.165.942-1.864 1.459-.7.518-1.437.988-2.214 1.414-.778.426-1.57.783-2.378 1.071-.81.29-1.601.434-2.378.434h-.047c-.902 0-1.632-.153-2.19-.457-.56-.303-1.011-.638-1.353-1.003a4.296 4.296 0 0 1-.84-1.46c.746 0 1.593-.295 2.542-.888a17.452 17.452 0 0 0 2.82-2.234 30.231 30.231 0 0 0 2.658-2.92 30.85 30.85 0 0 0 2.098-2.918c.56-.896.916-1.641 1.072-2.234.155-.593.03-.89-.373-.89-.435 0-1.026.29-1.77.867-.747.578-1.58 1.345-2.496 2.303a67.138 67.138 0 0 0-2.89 3.237 78.84 78.84 0 0 0-2.938 3.717 78.816 78.816 0 0 0-2.634 3.762 47.055 47.055 0 0 0-2.005 3.306c-.62 1.794-1.088 3.45-1.398 4.971-.311 1.52-.342 2.766-.093 3.739-.684 0-1.345-.045-1.982-.137a5.056 5.056 0 0 1-1.678-.524 3.081 3.081 0 0 1-1.167-1.094c-.295-.472-.442-1.072-.442-1.8 0-.822.287-1.993.862-3.513.576-1.52 1.313-3.192 2.216-5.016.901-1.824 1.88-3.67 2.935-5.54a122.35 122.35 0 0 1 3.055-5.131c.98-1.55 1.834-2.812 2.564-3.785.731-.972 1.22-1.46 1.468-1.46.125 0 .32.069.584.206.263.137.528.304.792.502s.498.425.7.684c.202.259.302.51.302.752a65.451 65.451 0 0 0-2.54 4.196c-.887 1.58-1.78 3.237-2.68 4.97l1.024-1.277c.312-.516.73-1.117 1.26-1.802a56.543 56.543 0 0 1 1.747-2.143 52.697 52.697 0 0 1 2.006-2.21 34.438 34.438 0 0 1 2.028-1.962c.653-.578 1.26-1.04 1.818-1.39.56-.35 1.026-.526 1.4-.526.31 0 .667.077 1.071.229a4.86 4.86 0 0 1 1.142.616c.358.258.66.57.91.934.248.365.373.775.373 1.231 0 .517-.125 1.163-.373 1.938-.25.776-.583 1.604-1.003 2.486a35.551 35.551 0 0 1-1.445 2.713 26.58 26.58 0 0 1-1.749 2.622c-.28.396-.31.541-.093.434.218-.106.52-.304.91-.594.388-.287.77-.592 1.142-.911.373-.32.575-.509.606-.57l3.357-3.33H73z"/>
        <path fill="#FEFEFE" d="M92 32.799c-.063 0-.093.03-.093.09l-2.985 3.01c-.093.093-.31.305-.652.638-.342.336-.785.73-1.33 1.187-.543.456-1.165.942-1.864 1.459-.7.518-1.437.988-2.214 1.414-.778.426-1.57.783-2.378 1.071-.81.29-1.601.434-2.378.434h-.047c-.902 0-1.632-.153-2.19-.457-.56-.303-1.011-.638-1.353-1.003a4.296 4.296 0 0 1-.84-1.46c.746 0 1.593-.295 2.542-.888a17.452 17.452 0 0 0 2.82-2.234 30.231 30.231 0 0 0 2.658-2.92 30.85 30.85 0 0 0 2.098-2.918c.56-.896.916-1.641 1.072-2.234.155-.593.03-.89-.373-.89-.435 0-1.026.29-1.77.867-.747.578-1.58 1.345-2.496 2.303a67.138 67.138 0 0 0-2.89 3.237 78.84 78.84 0 0 0-2.938 3.717 78.816 78.816 0 0 0-2.634 3.762 47.055 47.055 0 0 0-2.005 3.306c-.62 1.794-1.088 3.45-1.398 4.971-.311 1.52-.342 2.766-.093 3.739-.684 0-1.345-.045-1.982-.137a5.056 5.056 0 0 1-1.678-.524 3.081 3.081 0 0 1-1.167-1.094c-.295-.472-.442-1.072-.442-1.8 0-.822.287-1.993.862-3.513.576-1.52 1.313-3.192 2.216-5.016.901-1.824 1.88-3.67 2.935-5.54a122.35 122.35 0 0 1 3.055-5.131c.98-1.55 1.834-2.812 2.564-3.785.731-.972 1.22-1.46 1.468-1.46.125 0 .32.069.584.206.263.137.528.304.792.502s.498.425.7.684c.202.259.302.51.302.752a65.451 65.451 0 0 0-2.54 4.196c-.887 1.58-1.78 3.237-2.68 4.97l1.024-1.277c.312-.516.73-1.117 1.26-1.802a56.543 56.543 0 0 1 1.747-2.143 52.697 52.697 0 0 1 2.006-2.21 34.438 34.438 0 0 1 2.028-1.962c.653-.578 1.26-1.04 1.818-1.39.56-.35 1.026-.526 1.4-.526.31 0 .667.077 1.071.229a4.86 4.86 0 0 1 1.142.616c.358.258.66.57.91.934.248.365.373.775.373 1.231 0 .517-.125 1.163-.373 1.938-.25.776-.583 1.604-1.003 2.486a35.551 35.551 0 0 1-1.445 2.713 26.58 26.58 0 0 1-1.749 2.622c-.28.396-.31.541-.093.434.218-.106.52-.304.91-.594.388-.287.77-.592 1.142-.911.373-.32.575-.509.606-.57l3.357-3.33H92z"/>
        <path fill="#FEFEFE" d="M99.166 22.656c-.117 0-.372-.092-.765-.276-.391-.185-.8-.391-1.22-.62-.422-.23-.8-.445-1.134-.645-.335-.199-.502-.314-.502-.344 0-.03.102-.33.306-.897.202-.567.436-1.241.697-2.023a41 41 0 0 0 .741-2.482c.233-.874.379-1.663.437-2.369.29 0 .682.093 1.178.276.494.184.966.43 1.418.736.45.307.842.667 1.177 1.08.333.414.501.867.501 1.357s-.124 1.088-.37 1.793a16.76 16.76 0 0 1-.873 2.046 16.75 16.75 0 0 1-.959 1.678c-.305.46-.517.69-.632.69zm-.48 8.965h2.442a382.085 382.085 0 0 1-3.882 4.69 85.723 85.723 0 0 1-1.504 1.724 33.53 33.53 0 0 1-1.418 1.494c-.436.43-.822.781-1.155 1.057-.335.276-.576.414-.72.414-.785 0-1.462-.115-2.029-.345-.567-.23-1.025-.513-1.374-.85a3.99 3.99 0 0 1-.785-1.012c-.174-.337-.261-.628-.261-.873 0-.858.181-1.908.545-3.15a31.28 31.28 0 0 1 1.418-3.839 39.622 39.622 0 0 1 1.962-3.862 30.79 30.79 0 0 1 2.181-3.31c.349 0 .727.062 1.133.184.408.123.786.283 1.135.483.35.2.647.436.894.712.247.276.37.567.37.874a31.414 31.414 0 0 0-2.856 4.85c-.77 1.64-1.352 3.074-1.744 4.3-.393 1.225-.568 2.122-.524 2.69.043.566.312.573.807.021l5.365-6.252z"/>
        <g transform="translate(97 12)">
            <mask id="b" fill="#fff">
                <use xlink:href="#a"/>
            </mask>
            <path fill="#FEFEFE" d="M30.339 2.982c-.498.617-1.096 1.486-1.795 2.61a80.25 80.25 0 0 0-2.237 3.855 142.89 142.89 0 0 0-2.471 4.732 116.487 116.487 0 0 0-2.471 5.264c-.793 1.801-1.532 3.617-2.215 5.449a62.8 62.8 0 0 0-1.725 5.286 39.473 39.473 0 0 0-1.026 4.779c-.217 1.493-.249 2.794-.093 3.902-.59 0-1.228-.092-1.911-.277a6.015 6.015 0 0 1-1.912-.9c-.59-.417-1.08-.97-1.468-1.663-.389-.693-.583-1.547-.583-2.562 0-.801.124-1.731.374-2.794.247-1.061.59-2.208 1.024-3.44-.808.155-1.788.292-2.936.416-1.15.123-2.471.184-3.963.184-.218 0-.56-.122-1.026-.369-.466-.246-.932-.607-1.4-1.084a7.58 7.58 0 0 1-1.234-1.709c-.358-.662-.536-1.408-.536-2.24 0-.584.326-1.484.98-2.7.651-1.216 1.475-2.579 2.47-4.087.994-1.508 2.09-3.078 3.287-4.71a309.465 309.465 0 0 1 3.45-4.617 408.627 408.627 0 0 1 2.937-3.81A86.099 86.099 0 0 0 15.607.212c.466 0 .948.1 1.445.3.496.201.94.431 1.33.693.387.262.706.539.954.83.25.294.373.532.373.717a135.127 135.127 0 0 0-5.57 7.549 169.21 169.21 0 0 0-4.36 6.671c-1.211 1.971-2.16 3.602-2.844 4.895C6.25 23.16 5.91 23.915 5.91 24.13c0 .217.201.355.606.416.404.063.932.077 1.585.046.653-.03 1.398-.069 2.238-.115.84-.046 1.709-.07 2.61-.07a106.71 106.71 0 0 1 2.518-5.378 104.35 104.35 0 0 1 2.914-5.426 163.814 163.814 0 0 1 2.984-4.987c.978-1.57 1.872-2.939 2.68-4.109.808-1.169 1.499-2.1 2.075-2.794.574-.692.955-1.038 1.142-1.038.404 0 .792.078 1.166.23.373.155.7.347.98.578.279.23.504.484.674.761.17.278.257.524.257.739" mask="url(#b)"/>
        </g>
    </g>
</svg>
