<svg xmlns="http://www.w3.org/2000/svg" width="27" height="29" viewBox="0 0 27 29">
    <path fill="#B8B8B8" fill-rule="nonzero" d="M19.305 18.924H3.296C1.481 18.924 0 17.46 0 15.664V9v-.024-.047c0-.012 0-.024.006-.036 0-.012.006-.03.006-.041 0-.012.006-.024.006-.036.006-.011.006-.023.012-.04.006-.013.006-.025.012-.036.006-.012.006-.024.012-.036a.286.286 0 0 0 .018-.041c.006-.012.012-.024.018-.03L.107 8.6c.006-.012.012-.018.018-.03.006-.012.018-.023.024-.035.006-.012.012-.018.024-.03.006-.011.018-.017.024-.03.006-.011.018-.017.024-.029.006-.012.018-.017.024-.023l.03-.03c.012-.006.018-.018.03-.024.011-.005.023-.017.035-.023.012-.006.018-.012.03-.018.012-.006.024-.012.036-.024l.036-.017.036-.018.036-.018c.011-.006.023-.006.035-.011a.112.112 0 0 1 .042-.012c.012 0 .024-.006.03-.006.018-.006.03-.006.048-.006.006 0 .012-.006.024-.006l20.29-2.77v-2.8c0-.03 0-.06.006-.083 0-.006 0-.012.006-.024 0-.017.006-.035.006-.053.006-.018.006-.03.012-.047 0-.012.006-.018.006-.03l.018-.053c0-.006.006-.018.006-.023a.176.176 0 0 1 .023-.048c.006-.006.006-.017.012-.023.006-.012.012-.024.024-.036.006-.012.012-.018.018-.03.006-.011.012-.017.018-.029.006-.012.018-.023.024-.035l.018-.018.036-.035.018-.018c.012-.012.024-.024.041-.036.006-.006.018-.011.024-.017.012-.012.024-.018.036-.03.018-.012.036-.024.048-.03.006-.005.012-.005.018-.011.024-.012.054-.024.077-.036L25.88.064a.808.808 0 0 1 1.057.424.793.793 0 0 1-.43 1.046l-3.905 1.63v17.473c0 1.654-1.254 3.025-2.872 3.232.293.484.466 1.051.466 1.654 0 1.778-1.463 3.219-3.255 3.219-1.791 0-3.254-1.447-3.254-3.22 0-.59.161-1.151.448-1.624h-7.25c.287.479.449 1.034.449 1.625 0 1.778-1.463 3.219-3.255 3.219-1.791 0-3.254-1.447-3.254-3.22 0-1.772 1.463-3.219 3.254-3.219h15.227c.931 0 1.684-.75 1.684-1.666v-2.162a3.361 3.361 0 0 1-1.684.45zm-4.013 6.593c0 .898.74 1.624 1.642 1.624a1.64 1.64 0 0 0 1.642-1.624 1.64 1.64 0 0 0-1.642-1.625c-.901 0-1.642.727-1.642 1.625zm-12.862 0c0 .898.74 1.624 1.642 1.624a1.64 1.64 0 0 0 1.642-1.624 1.64 1.64 0 0 0-1.642-1.625c-.901 0-1.642.727-1.642 1.625zm.866-8.188h16.009c.931 0 1.684-.75 1.684-1.665V7.045L1.612 9.685v5.973c0 .927.759 1.671 1.684 1.671z"/>
</svg>
